# xmcd
#
# Track frame offsets: 
#        150
#        19343
#        33010
#        46114
#        61134
#        73307
#        90112
#        104662
#        118195
#        132428
#
# Disc length: 1969 seconds
#
# Revision: 6
# Processed by: cddbd v1.5.2PL0 Copyright (c) Steve Scherf et al.
# Submitted via: ExactAudioCopyFreeDBPlugin 1.0
#
DISCID=8307af0a
DTITLE=Kris Kristofferson - 1971 - The Silver Tongued Devil And I
DYEAR=1971
DGENRE=Country
TTITLE0=The Silver Tongued Devil And I
TTITLE1=Jody And The Kid
TTITLE2=Billy Dee
TTITLE3=Good Christian Soldier
TTITLE4=Breakdown (A Long Way From Home)
TTITLE5=Loving Her Was Easier (Than Anything I'll Ever Do Again)
TTITLE6=The Taker
TTITLE7=When I Loved Her
TTITLE8=The Pilgrim - Chapter 33
TTITLE9=Epitaph (Black And Blue)
EXTD=(c)1988 CBS Special Products - Monument\nupc 07989443522\nAK 4435
EXTD=2 YEAR: 1988
EXTT0=
EXTT1=
EXTT2=
EXTT3=
EXTT4=
EXTT5=
EXTT6=
EXTT7=
EXTT8=
EXTT9=
PLAYORDER=
